SolidWorks IGES file using analytic representation for surfaces         S      1
1H,,1H;,32HSFH_4716S_120913_geometry.SLDPRT,59HC:\LTUser\__Produkte\SFH4G      1
716S\SFH_4716S_120913_geometry.IGS,15HSolidWorks 2012,15HSolidWorks 2012G      2
,32,308,15,308,15,32HSFH_4716S_120913_geometry.SLDPRT,1.,2,2HMM,50,     G      3
0.125,13H130912.172653,1E-008,499990.,7Hjc_1406,,11,0,13H130912.172653; G      4
     314       1       0       0       0                        00000200D      1
     314       0       8       1       0                               0D      2
     502       2       0       0       0                        00010000D      3
     502       0       0       9       1                               0D      4
     110      11       0       0       0                        01010000D      5
     110       0       0       1       0                               0D      6
     126      12       0       0       0                        01010000D      7
     126       0       0       4       0                               0D      8
     110      16       0       0       0                        01010000D      9
     110       0       0       1       0                               0D     10
     124      17       0       0       0                        00000000D     11
     124       0       0       3       0                               0D     12
     100      20       0       0       0              11        00010000D     13
     100       0       0       1       0                               0D     14
     126      21       0       0       0                        01010000D     15
     126       0       0       3       0                               0D     16
     110      24       0       0       0                        01010000D     17
     110       0       0       1       0                               0D     18
     110      25       0       0       0                        01010000D     19
     110       0       0       1       0                               0D     20
     124      26       0       0       0                        00000000D     21
     124       0       0       4       0                               0D     22
     100      30       0       0       0              21        00010000D     23
     100       0       0       1       0                               0D     24
     110      31       0       0       0                        01010000D     25
     110       0       0       1       0                               0D     26
     110      32       0       0       0                        01010000D     27
     110       0       0       1       0                               0D     28
     110      33       0       0       0                        01010000D     29
     110       0       0       1       0                               0D     30
     110      34       0       0       0                        01010000D     31
     110       0       0       1       0                               0D     32
     110      35       0       0       0                        01010000D     33
     110       0       0       1       0                               0D     34
     110      36       0       0       0                        01010000D     35
     110       0       0       1       0                               0D     36
     110      37       0       0       0                        01010000D     37
     110       0       0       1       0                               0D     38
     110      38       0       0       0                        01010000D     39
     110       0       0       1       0                               0D     40
     110      39       0       0       0                        01010000D     41
     110       0       0       1       0                               0D     42
     110      40       0       0       0                        01010000D     43
     110       0       0       1       0                               0D     44
     126      41       0       0       0                        01010000D     45
     126       0       0       3       0                               0D     46
     110      44       0       0       0                        01010000D     47
     110       0       0       1       0                               0D     48
     126      45       0       0       0                        01010000D     49
     126       0       0       2       0                               0D     50
     110      47       0       0       0                        01010000D     51
     110       0       0       1       0                               0D     52
     110      48       0       0       0                        01010000D     53
     110       0       0       1       0                               0D     54
     126      49       0       0       0                        01010000D     55
     126       0       0       4       0                               0D     56
     110      53       0       0       0                        01010000D     57
     110       0       0       1       0                               0D     58
     110      54       0       0       0                        01010000D     59
     110       0       0       1       0                               0D     60
     126      55       0       0       0                        01010000D     61
     126       0       0       3       0                               0D     62
     126      58       0       0       0                        01010000D     63
     126       0       0       3       0                               0D     64
     110      61       0       0       0                        01010000D     65
     110       0       0       1       0                               0D     66
     126      62       0       0       0                        01010000D     67
     126       0       0       4       0                               0D     68
     110      66       0       0       0                        01010000D     69
     110       0       0       1       0                               0D     70
     126      67       0       0       0                        01010000D     71
     126       0       0       3       0                               0D     72
     110      70       0       0       0                        01010000D     73
     110       0       0       1       0                               0D     74
     126      71       0       0       0                        01010000D     75
     126       0       0       4       0                               0D     76
     110      75       0       0       0                        01010000D     77
     110       0       0       1       0                               0D     78
     110      76       0       0       0                        01010000D     79
     110       0       0       1       0                               0D     80
     504      77       0       0       0                        00010000D     81
     504       0       0       8       1                               0D     82
     128      85       0       0       0                        01010000D     83
     128       0      -1      12       0                               0D     84
     508      97       0       0       0                        00010000D     85
     508       0       0       1       1                               0D     86
     510      98       0       0       0                        00010000D     87
     510       0      -1       1       1                               0D     88
     128      99       0       0       0                        01010000D     89
     128       0      -1       8       0                               0D     90
     508     107       0       0       0                        00010000D     91
     508       0       0       1       1                               0D     92
     510     108       0       0       0                        00010000D     93
     510       0      -1       1       1                               0D     94
     116     109       0       0       0                        00010000D     95
     116       0       0       1       0                               0D     96
     123     110       0       0       0                        00010200D     97
     123       0       0       1       0                               0D     98
     123     111       0       0       0                        00010200D     99
     123       0       0       1       0                               0D    100
     190     112       0       0       0                        00010000D    101
     190       0      -1       1       1                               0D    102
     508     113       0       0       0                        00010000D    103
     508       0       0       1       1                               0D    104
     510     114       0       0       0                        00010000D    105
     510       0      -1       1       1                               0D    106
     116     115       0       0       0                        00010000D    107
     116       0       0       1       0                               0D    108
     123     116       0       0       0                        00010200D    109
     123       0       0       1       0                               0D    110
     123     117       0       0       0                        00010200D    111
     123       0       0       1       0                               0D    112
     190     118       0       0       0                        00010000D    113
     190       0      -1       1       1                               0D    114
     508     119       0       0       0                        00010000D    115
     508       0       0       1       1                               0D    116
     510     120       0       0       0                        00010000D    117
     510       0      -1       1       1                               0D    118
     116     121       0       0       0                        00010000D    119
     116       0       0       1       0                               0D    120
     123     122       0       0       0                        00010200D    121
     123       0       0       1       0                               0D    122
     123     123       0       0       0                        00010200D    123
     123       0       0       1       0                               0D    124
     190     124       0       0       0                        00010000D    125
     190       0      -1       1       1                               0D    126
     508     125       0       0       0                        00010000D    127
     508       0       0       1       1                               0D    128
     510     126       0       0       0                        00010000D    129
     510       0      -1       1       1                               0D    130
     116     127       0       0       0                        00010000D    131
     116       0       0       1       0                               0D    132
     123     128       0       0       0                        00010200D    133
     123       0       0       1       0                               0D    134
     123     129       0       0       0                        00010200D    135
     123       0       0       1       0                               0D    136
     190     130       0       0       0                        00010000D    137
     190       0      -1       1       1                               0D    138
     508     131       0       0       0                        00010000D    139
     508       0       0       1       1                               0D    140
     510     132       0       0       0                        00010000D    141
     510       0      -1       1       1                               0D    142
     116     133       0       0       0                        00010000D    143
     116       0       0       1       0                               0D    144
     123     134       0       0       0                        00010200D    145
     123       0       0       1       0                               0D    146
     123     135       0       0       0                        00010200D    147
     123       0       0       1       0                               0D    148
     190     136       0       0       0                        00010000D    149
     190       0      -1       1       1                               0D    150
     508     137       0       0       0                        00010000D    151
     508       0       0       1       1                               0D    152
     510     138       0       0       0                        00010000D    153
     510       0      -1       1       1                               0D    154
     116     139       0       0       0                        00010000D    155
     116       0       0       1       0                               0D    156
     123     140       0       0       0                        00010200D    157
     123       0       0       1       0                               0D    158
     123     141       0       0       0                        00010200D    159
     123       0       0       1       0                               0D    160
     190     142       0       0       0                        00010000D    161
     190       0      -1       1       1                               0D    162
     508     143       0       0       0                        00010000D    163
     508       0       0       1       1                               0D    164
     508     144       0       0       0                        00010000D    165
     508       0       0       1       1                               0D    166
     510     145       0       0       0                        00010000D    167
     510       0      -1       1       1                               0D    168
     116     146       0       0       0                        00010000D    169
     116       0       0       1       0                               0D    170
     123     147       0       0       0                        00010200D    171
     123       0       0       1       0                               0D    172
     123     148       0       0       0                        00010200D    173
     123       0       0       1       0                               0D    174
     190     149       0       0       0                        00010000D    175
     190       0      -1       1       1                               0D    176
     508     150       0       0       0                        00010000D    177
     508       0       0       1       1                               0D    178
     508     151       0       0       0                        00010000D    179
     508       0       0       1       1                               0D    180
     510     152       0       0       0                        00010000D    181
     510       0      -1       1       1                               0D    182
     116     153       0       0       0                        00010000D    183
     116       0       0       1       0                               0D    184
     123     154       0       0       0                        00010200D    185
     123       0       0       1       0                               0D    186
     123     155       0       0       0                        00010200D    187
     123       0       0       1       0                               0D    188
     190     156       0       0       0                        00010000D    189
     190       0      -1       1       1                               0D    190
     508     157       0       0       0                        00010000D    191
     508       0       0       1       1                               0D    192
     510     158       0       0       0                        00010000D    193
     510       0      -1       1       1                               0D    194
     116     159       0       0       0                        00010000D    195
     116       0       0       1       0                               0D    196
     123     160       0       0       0                        00010200D    197
     123       0       0       1       0                               0D    198
     123     161       0       0       0                        00010200D    199
     123       0       0       1       0                               0D    200
     190     162       0       0       0                        00010000D    201
     190       0      -1       1       1                               0D    202
     508     163       0       0       0                        00010000D    203
     508       0       0       1       1                               0D    204
     510     164       0       0       0                        00010000D    205
     510       0      -1       1       1                               0D    206
     116     165       0       0       0                        00010000D    207
     116       0       0       1       0                               0D    208
     123     166       0       0       0                        00010200D    209
     123       0       0       1       0                               0D    210
     123     167       0       0       0                        00010200D    211
     123       0       0       1       0                               0D    212
     190     168       0       0       0                        00010000D    213
     190       0      -1       1       1                               0D    214
     508     169       0       0       0                        00010000D    215
     508       0       0       1       1                               0D    216
     510     170       0       0       0                        00010000D    217
     510       0      -1       1       1                               0D    218
     116     171       0       0       0                        00010000D    219
     116       0       0       1       0                               0D    220
     123     172       0       0       0                        00010200D    221
     123       0       0       1       0                               0D    222
     123     173       0       0       0                        00010200D    223
     123       0       0       1       0                               0D    224
     190     174       0       0       0                        00010000D    225
     190       0      -1       1       1                               0D    226
     508     175       0       0       0                        00010000D    227
     508       0       0       1       1                               0D    228
     510     176       0       0       0                        00010000D    229
     510       0      -1       1       1                               0D    230
     116     177       0       0       0                        00010000D    231
     116       0       0       1       0                               0D    232
     123     178       0       0       0                        00010200D    233
     123       0       0       1       0                               0D    234
     123     179       0       0       0                        00010200D    235
     123       0       0       1       0                               0D    236
     190     180       0       0       0                        00010000D    237
     190       0      -1       1       1                               0D    238
     508     181       0       0       0                        00010000D    239
     508       0       0       1       1                               0D    240
     508     182       0       0       0                        00010000D    241
     508       0       0       1       1                               0D    242
     510     183       0       0       0                        00010000D    243
     510       0      -1       1       1                               0D    244
     128     184       0       0       0                        01010000D    245
     128       0      -1      12       0                               0D    246
     508     196       0       0       0                        00010000D    247
     508       0       0       1       1                               0D    248
     510     197       0       0       0                        00010000D    249
     510       0      -1       1       1                               0D    250
     128     198       0       0       0                        01010000D    251
     128       0      -1       8       0                               0D    252
     508     206       0       0       0                        00010000D    253
     508       0       0       1       1                               0D    254
     510     207       0       0       0                        00010000D    255
     510       0      -1       1       1                               0D    256
     514     208       0       0       0                        00010000D    257
     514       0       0       2       1                               0D    258
     186     210       0       0       0                        00000000D    259
     186       0       0       1       0                               0D    260
314,79.6078431372549,82.3529411764706,93.7254901960784,;               1P      1
502,25,1.8,-1.8,0.403577521,0.,1.4,1.053,-1.875,-1.875,                3P      2
0.404155041,0.,0.,1.55299,-1.875,1.875,0.564155041,-1.875,             3P      3
1.875,0.403,-1.875,-1.875,0.403,1.875,-1.875,0.403,-1.8,-1.8,          3P      4
0.403577521,0.,-1.4,1.053,-1.875,-1.875,0.,-1.875,-1.875,              3P      5
0.564155041,-1.875,1.875,0.,-1.8,1.8,0.403577521,1.875,-1.875,         3P      6
0.564155041,1.875,1.875,0.403,1.875,1.875,0.404155041,1.875,           3P      7
-1.875,0.,0.,-1.681898672,0.564155041,0.,1.681898672,                  3P      8
0.564155041,1.875,1.875,0.,1.875,1.875,0.564155041,1.8,1.8,            3P      9
0.403577521,-1.875,1.875,0.404155041,1.875,-1.875,0.404155041;         3P     10
110,1.875,-1.875,0.564155041,-1.875,-1.875,0.564155041;                5P     11
126,3,3,1,0,0,0,0.,0.,0.,0.,1.,1.,1.,1.,1.,0.333333333333333,          7P     12
0.333333333333333,1.,0.,1.681898672,0.564155041,-3.363797344,          7P     13
1.681898672,0.564155041,-3.363797344,-1.681898672,0.564155041,         7P     14
0.,-1.681898672,0.564155041,0.,1.,0.,0.,-1.;                           7P     15
110,-1.875,-1.875,0.,-1.875,1.875,0.;                                  9P     16
124,-6.12303176911189E-017,-1.,6.98296672221876E-015,                 11P     17
-7.35306395849636E-015,-1.,6.12303176911189E-017,0.,0.,               11P     18
-4.27569270827966E-031,-6.98296672221876E-015,-1.,2.106;              11P     19
100,1.053,0.,0.,1.4,0.,-1.4,0.;                                       13P     20
126,3,3,1,0,1,0,0.,0.,0.,0.,1.,1.,1.,1.,1.,1.,1.,1.,-1.8,-1.8,        15P     21
0.404155041,-0.6,-1.8,0.404155041,0.6,-1.8,0.404155041,1.8,           15P     22
-1.8,0.404155041,0.,1.,0.,0.,0.;                                      15P     23
110,1.875,-1.875,0.403,1.875,1.875,0.403;                             17P     24
110,-1.875,-1.875,0.,-1.875,-1.875,0.403;                             19P     25
124,1.43945537573404E-014,1.,-6.98296672221876E-015,                  21P     26
7.35306395849636E-015,1.,-1.43945537573404E-014,                      21P     27
8.55166784491769E-031,-9.00490624069847E-031,                         21P     28
-9.9661523084205E-029,-6.98296672221876E-015,-1.,2.106;               21P     29
100,1.053,0.,0.,1.4,0.,-1.4,0.;                                       23P     30
110,1.875,-1.875,0.564155041,1.875,-1.875,0.404155041;                25P     31
110,1.875,1.875,0.564155041,1.875,-1.875,0.564155041;                 27P     32
110,1.875,1.875,0.403,1.875,1.875,0.;                                 29P     33
110,-1.875,1.875,0.,1.875,1.875,0.;                                   31P     34
110,1.875,-1.875,0.,-1.875,-1.875,0.;                                 33P     35
110,1.875,1.875,0.404155041,1.875,1.875,0.564155041;                  35P     36
110,-1.875,1.875,0.403,-1.875,-1.875,0.403;                           37P     37
110,-1.875,1.875,0.564155041,1.875,1.875,0.564155041;                 39P     38
110,1.875,1.875,0.,1.875,-1.875,0.;                                   41P     39
110,-1.875,1.875,0.404155041,-1.875,1.875,0.564155041;                43P     40
126,2,2,1,0,0,0,-1.,-1.,-1.,-0.,-0.,-0.,1.,1.94117647058824,1.,       45P     41
0.,0.,1.55299,0.,-1.156,1.55299,0.,-1.4,1.05299,-1.,-0.,-1.,0.,       45P     42
0.;                                                                   45P     43
110,-1.875,-1.875,0.404155041,-1.875,-1.875,0.564155041;              47P     44
126,2,2,1,0,0,0,-1.,-1.,-1.,-0.,-0.,-0.,1.,1.94117647058824,1.,       49P     45
0.,0.,1.55299,0.,1.156,1.55299,0.,1.4,1.05299,-1.,-0.,1.,0.,0.;       49P     46
110,-1.875,-1.875,0.564155041,-1.875,1.875,0.564155041;               51P     47
110,1.875,-1.875,0.403,1.875,-1.875,0.;                               53P     48
126,2,2,1,0,0,0,-1.,-1.,-1.,-0.0364496165242503,                      55P     49
-0.0364496165242503,-0.0364496165242503,1.,7.10248576201308,          55P     50
1.44486653174015,0.,1.4,1.053,0.,1.648717012,0.585412017,0.,          55P     51
1.681898672,0.564155041,-1.,-0.0364496165242503,-1.,0.,0.;            55P     52
110,1.875,1.875,0.404155041,1.875,-1.875,0.404155041;                 57P     53
110,1.875,1.875,0.403,-1.875,1.875,0.403;                             59P     54
126,3,3,1,0,1,0,0.,0.,0.,0.,1.,1.,1.,1.,1.,1.,1.,1.,1.8,-1.8,         61P     55
0.404155041,1.8,-0.6,0.404155041,1.8,0.6,0.404155041,1.8,1.8,         61P     56
0.404155041,0.,1.,0.,0.,0.;                                           61P     57
126,3,3,1,0,1,0,0.,0.,0.,0.,1.,1.,1.,1.,1.,1.,1.,1.,1.8,1.8,          63P     58
0.404155041,0.6,1.8,0.404155041,-0.6,1.8,0.404155041,-1.8,1.8,        63P     59
0.404155041,0.,1.,0.,0.,0.;                                           63P     60
110,-1.875,1.875,0.404155041,1.875,1.875,0.404155041;                 65P     61
126,3,3,1,0,0,0,0.,0.,0.,0.,1.,1.,1.,1.,1.,0.333333333333333,         67P     62
0.333333333333333,1.,0.,-1.681898672,0.564155041,3.363797344,         67P     63
-1.681898672,0.564155041,3.363797344,1.681898672,0.564155041,         67P     64
0.,1.681898672,0.564155041,0.,1.,0.,0.,-1.;                           67P     65
110,-1.875,-1.875,0.404155041,-1.875,1.875,0.404155041;               69P     66
126,3,3,1,0,1,0,0.,0.,0.,0.,1.,1.,1.,1.,1.,1.,1.,1.,-1.8,1.8,         71P     67
0.404155041,-1.8,0.6,0.404155041,-1.8,-0.6,0.404155041,-1.8,          71P     68
-1.8,0.404155041,0.,1.,0.,0.,0.;                                      71P     69
110,-1.875,1.875,0.403,-1.875,1.875,0.;                               73P     70
126,2,2,1,0,0,0,-1.,-1.,-1.,-0.0364496165242487,                      75P     71
-0.0364496165242487,-0.0364496165242487,1.,7.10248576201309,          75P     72
1.44486653174013,0.,-1.4,1.053,0.,-1.648717012,0.585412017,0.,        75P     73
-1.681898672,0.564155041,-1.,-0.0364496165242487,1.,0.,0.;            75P     74
110,1.875,-1.875,0.404155041,-1.875,-1.875,0.404155041;               77P     75
110,-1.875,-1.875,0.403,1.875,-1.875,0.403;                           79P     76
504,36,5,3,15,3,12,7,3,20,3,19,9,3,11,3,13,13,3,10,3,2,15,3,9,        81P     77
3,1,17,3,8,3,16,19,3,11,3,7,23,3,2,3,10,25,3,15,3,25,27,3,22,3,       81P     78
15,29,3,16,3,21,31,3,13,3,21,33,3,18,3,11,35,3,17,3,22,37,3,6,        81P     79
3,7,39,3,5,3,22,41,3,21,3,18,43,3,24,3,5,45,3,4,3,10,47,3,3,3,        81P     80
12,49,3,4,3,2,51,3,12,3,5,53,3,8,3,18,55,3,2,3,20,57,3,17,3,25,       81P     81
59,3,16,3,6,61,3,1,3,23,63,3,23,3,14,65,3,24,3,17,67,3,19,3,20,       81P     82
69,3,3,3,24,71,3,14,3,9,73,3,6,3,13,75,3,10,3,19,77,3,25,3,3,         81P     83
79,3,7,3,8;                                                           81P     84
128,2,3,2,3,0,0,0,0,0,-1.,-1.,-1.,-0.0364496165242492,                83P     85
-0.0364496165242492,-0.0364496165242492,0.,0.,0.,0.,1.,1.,1.,         83P     86
1.,1.,7.10248576201309,1.44486653174014,0.333333333333333,            83P     87
2.36749525400436,0.481622177246712,0.333333333333333,                 83P     88
2.36749525400436,0.481622177246712,1.,7.10248576201309,               83P     89
1.44486653174014,0.,-1.4,1.053,0.,-1.648717012,0.585412017,0.,        83P     90
-1.681898672,0.564155041,2.8,-1.4,1.053,3.297434024,                  83P     91
-1.648717012,0.585412017,3.363797344,-1.681898672,0.564155041,        83P     92
2.8,1.4,1.053,3.297434024,1.648717012,0.585412017,3.363797344,        83P     93
1.681898672,0.564155041,0.,1.4,1.053,0.,1.648717012,                  83P     94
0.585412017,0.,1.681898672,0.564155041,-1.,-0.0364496165242492,       83P     95
0.,1.;                                                                83P     96
508,4,0,81,8,1,0,0,81,34,1,0,0,81,30,1,0,0,81,24,0,0;                 85P     97
510,83,1,1,85;                                                        87P     98
128,2,3,2,3,0,0,0,0,0,-1.,-1.,-1.,-0.,-0.,-0.,0.,0.,0.,0.,1.,         89P     99
1.,1.,1.,1.,1.94117647058824,1.,0.333333333333333,                    89P    100
0.647058823529413,0.333333333333333,0.333333333333333,                89P    101
0.647058823529413,0.333333333333333,1.,1.94117647058824,1.,0.,        89P    102
0.,1.55299,0.,-1.156,1.55299,0.,-1.4,1.05299,0.,0.,1.55299,           89P    103
2.312,-1.156,1.55299,2.8,-1.4,1.05299,0.,0.,1.55299,2.312,            89P    104
1.156,1.55299,2.8,1.4,1.05299,0.,0.,1.55299,0.,1.156,1.55299,         89P    105
0.,1.4,1.05299,-1.,-0.,0.,1.;                                         89P    106
508,3,0,81,21,0,0,0,81,19,1,0,0,81,8,0,0;                             91P    107
510,89,1,1,91;                                                        93P    108
116,1.875,-1.875,0.,;                                                 95P    109
123,0.,0.,-1.;                                                        97P    110
123,-0.707106781,0.707106781,0.;                                      99P    111
190,95,97,99;                                                        101P    112
508,4,0,81,17,1,0,0,81,13,1,0,0,81,3,1,0,0,81,12,1,0;                103P    113
510,101,1,1,103;                                                     105P    114
116,-1.875,-1.875,0.403,;                                            107P    115
123,0.,1.,0.;                                                        109P    116
123,-0.707106781,0.,0.707106781;                                     111P    117
190,107,109,111;                                                     113P    118
508,4,0,81,23,0,0,0,81,36,0,0,0,81,7,0,0,0,81,13,0,0;                115P    119
510,113,1,1,115;                                                     117P    120
116,1.875,-1.875,0.403,;                                             119P    121
123,-1.,0.,0.;                                                       121P    122
123,0.,-0.707106781,0.707106781;                                     123P    123
190,119,121,123;                                                     125P    124
508,4,0,81,11,0,0,0,81,6,0,0,0,81,23,1,0,0,81,17,0,0;                127P    125
510,125,1,1,127;                                                     129P    126
116,-1.875,1.875,0.403,;                                             131P    127
123,0.,-1.,0.;                                                       133P    128
123,0.707106781,0.,-0.707106781;                                     135P    129
190,131,133,135;                                                     137P    130
508,4,0,81,33,0,0,0,81,26,0,0,0,81,11,1,0,0,81,12,0,0;               139P    131
510,137,1,1,139;                                                     141P    132
116,-1.875,-1.875,0.403,;                                            143P    133
123,1.,0.,0.;                                                        145P    134
123,0.,0.707106781,-0.707106781;                                     147P    135
190,143,145,147;                                                     149P    136
508,4,0,81,7,1,0,0,81,15,0,0,0,81,33,1,0,0,81,3,0,0;                 151P    137
510,149,1,1,151;                                                     153P    138
116,1.562144203,0.65,0.403,;                                         155P    139
123,0.,0.,-1.;                                                       157P    140
123,-0.707106781,0.707106781,0.;                                     159P    141
190,155,157,159;                                                     161P    142
508,4,0,81,6,1,0,0,81,26,1,0,0,81,15,1,0,0,81,36,1,0;                163P    143
508,4,0,81,5,0,0,0,81,32,0,0,0,81,28,0,0,0,81,27,0,0;                165P    144
510,161,2,1,163,165;                                                 167P    145
116,1.875,-1.875,0.404155041,;                                       169P    146
123,0.,0.,-1.;                                                       171P    147
123,-0.707106781,0.707106781,0.;                                     173P    148
190,169,171,173;                                                     175P    149
508,4,0,81,29,1,0,0,81,25,1,0,0,81,35,1,0,0,81,31,1,0;               177P    150
508,4,0,81,28,1,0,0,81,32,1,0,0,81,5,1,0,0,81,27,1,0;                179P    151
510,175,2,1,177,179;                                                 181P    152
116,1.875,1.875,0.404155041,;                                        183P    153
123,1.,0.,0.;                                                        185P    154
123,0.,0.707106781,-0.707106781;                                     187P    155
190,183,185,187;                                                     189P    156
508,4,0,81,25,0,0,0,81,14,1,0,0,81,10,1,0,0,81,9,1,0;                191P    157
510,189,1,1,191;                                                     193P    158
116,-1.875,1.875,0.404155041,;                                       195P    159
123,0.,1.,0.;                                                        197P    160
123,-0.707106781,0.,0.707106781;                                     199P    161
190,195,197,199;                                                     201P    162
508,4,0,81,29,0,0,0,81,18,1,0,0,81,16,1,0,0,81,14,0,0;               203P    163
510,201,1,1,203;                                                     205P    164
116,-1.875,1.875,0.404155041,;                                       207P    165
123,-1.,0.,0.;                                                       209P    166
123,0.,-0.707106781,0.707106781;                                     211P    167
190,207,209,211;                                                     213P    168
508,4,0,81,31,0,0,0,81,20,1,0,0,81,22,1,0,0,81,18,0,0;               215P    169
510,213,1,1,215;                                                     217P    170
116,-1.875,-1.875,0.404155041,;                                      219P    171
123,0.,-1.,0.;                                                       221P    172
123,0.707106781,0.,-0.707106781;                                     223P    173
190,219,221,223;                                                     225P    174
508,4,0,81,35,0,0,0,81,9,0,0,0,81,1,1,0,0,81,20,0,0;                 227P    175
510,225,1,1,227;                                                     229P    176
116,1.875,-1.875,0.564155041,;                                       231P    177
123,0.,0.,-1.;                                                       233P    178
123,-0.707106781,0.707106781,0.;                                     235P    179
190,231,233,235;                                                     237P    180
508,4,0,81,10,0,0,0,81,16,0,0,0,81,22,0,0,0,81,1,0,0;                239P    181
508,2,0,81,2,0,0,0,81,30,0,0;                                        241P    182
510,237,2,1,239,241;                                                 243P    183
128,2,3,2,3,0,0,0,0,0,-1.,-1.,-1.,-0.0364496165242492,               245P    184
-0.0364496165242492,-0.0364496165242492,0.,0.,0.,0.,1.,1.,1.,        245P    185
1.,1.,7.10248576201309,1.44486653174014,0.333333333333333,           245P    186
2.36749525400436,0.481622177246712,0.333333333333333,                245P    187
2.36749525400436,0.481622177246712,1.,7.10248576201309,              245P    188
1.44486653174014,0.,1.4,1.053,0.,1.648717012,0.585412017,0.,         245P    189
1.681898672,0.564155041,-2.8,1.4,1.053,-3.297434024,                 245P    190
1.648717012,0.585412017,-3.363797344,1.681898672,0.564155041,        245P    191
-2.8,-1.4,1.053,-3.297434024,-1.648717012,0.585412017,               245P    192
-3.363797344,-1.681898672,0.564155041,0.,-1.4,1.053,0.,              245P    193
-1.648717012,0.585412017,0.,-1.681898672,0.564155041,-1.,            245P    194
-0.0364496165242492,0.,1.;                                           245P    195
508,4,0,81,34,0,0,0,81,4,1,0,0,81,24,1,0,0,81,2,1,0;                 247P    196
510,245,1,1,247;                                                     249P    197
128,2,3,2,3,0,0,0,0,0,-1.,-1.,-1.,-0.,-0.,-0.,0.,0.,0.,0.,1.,        251P    198
1.,1.,1.,1.,1.94117647058824,1.,0.333333333333333,                   251P    199
0.647058823529413,0.333333333333333,0.333333333333333,               251P    200
0.647058823529413,0.333333333333333,1.,1.94117647058824,1.,0.,       251P    201
0.,1.55299,0.,1.156,1.55299,0.,1.4,1.05299,0.,0.,1.55299,            251P    202
-2.312,1.156,1.55299,-2.8,1.4,1.05299,0.,0.,1.55299,-2.312,          251P    203
-1.156,1.55299,-2.8,-1.4,1.05299,0.,0.,1.55299,0.,-1.156,            251P    204
1.55299,0.,-1.4,1.05299,-1.,-0.,0.,1.;                               251P    205
508,3,0,81,19,0,0,0,81,21,1,0,0,81,4,0,0;                            253P    206
510,251,1,1,253;                                                     255P    207
514,16,87,1,93,1,105,1,117,1,129,1,141,1,153,1,167,1,181,1,193,      257P    208
1,205,1,217,1,229,1,243,1,249,1,255,1;                               257P    209
186,257,1,0;                                                         259P    210
S      1G      4D    260P    210                                        T      1
