<?xml version="1.0" encoding="UTF-8"?>
<!DOCTYPE svg PUBLIC "-//W3C//DTD SVG 1.1//EN" "http://www.w3.org/Graphics/SVG/1.1/DTD/svg11.dtd">
<svg xmlns="http://www.w3.org/2000/svg" version="1.1" viewBox="0 0 21 21" stroke="none">
	<rect width="100%" height="100%" fill="#FFFFFF"/>
	<path d="M0,0h1v1h-1z M1,0h1v1h-1z M2,0h1v1h-1z M3,0h1v1h-1z M4,0h1v1h-1z M5,0h1v1h-1z M6,0h1v1h-1z M8,0h1v1h-1z M9,0h1v1h-1z M10,0h1v1h-1z M11,0h1v1h-1z M12,0h1v1h-1z M14,0h1v1h-1z M15,0h1v1h-1z M16,0h1v1h-1z M17,0h1v1h-1z M18,0h1v1h-1z M19,0h1v1h-1z M20,0h1v1h-1z M0,1h1v1h-1z M6,1h1v1h-1z M9,1h1v1h-1z M14,1h1v1h-1z M20,1h1v1h-1z M0,2h1v1h-1z M2,2h1v1h-1z M3,2h1v1h-1z M4,2h1v1h-1z M6,2h1v1h-1z M10,2h1v1h-1z M11,2h1v1h-1z M14,2h1v1h-1z M16,2h1v1h-1z M17,2h1v1h-1z M18,2h1v1h-1z M20,2h1v1h-1z M0,3h1v1h-1z M2,3h1v1h-1z M3,3h1v1h-1z M4,3h1v1h-1z M6,3h1v1h-1z M9,3h1v1h-1z M10,3h1v1h-1z M14,3h1v1h-1z M16,3h1v1h-1z M17,3h1v1h-1z M18,3h1v1h-1z M20,3h1v1h-1z M0,4h1v1h-1z M2,4h1v1h-1z M3,4h1v1h-1z M4,4h1v1h-1z M6,4h1v1h-1z M8,4h1v1h-1z M11,4h1v1h-1z M12,4h1v1h-1z M14,4h1v1h-1z M16,4h1v1h-1z M17,4h1v1h-1z M18,4h1v1h-1z M20,4h1v1h-1z M0,5h1v1h-1z M6,5h1v1h-1z M8,5h1v1h-1z M11,5h1v1h-1z M12,5h1v1h-1z M14,5h1v1h-1z M20,5h1v1h-1z M0,6h1v1h-1z M1,6h1v1h-1z M2,6h1v1h-1z M3,6h1v1h-1z M4,6h1v1h-1z M5,6h1v1h-1z M6,6h1v1h-1z M8,6h1v1h-1z M10,6h1v1h-1z M12,6h1v1h-1z M14,6h1v1h-1z M15,6h1v1h-1z M16,6h1v1h-1z M17,6h1v1h-1z M18,6h1v1h-1z M19,6h1v1h-1z M20,6h1v1h-1z M12,7h1v1h-1z M1,8h1v1h-1z M2,8h1v1h-1z M3,8h1v1h-1z M4,8h1v1h-1z M5,8h1v1h-1z M6,8h1v1h-1z M7,8h1v1h-1z M9,8h1v1h-1z M10,8h1v1h-1z M15,8h1v1h-1z M16,8h1v1h-1z M20,8h1v1h-1z M1,9h1v1h-1z M4,9h1v1h-1z M8,9h1v1h-1z M9,9h1v1h-1z M10,9h1v1h-1z M16,9h1v1h-1z M17,9h1v1h-1z M18,9h1v1h-1z M20,9h1v1h-1z M2,10h1v1h-1z M6,10h1v1h-1z M9,10h1v1h-1z M10,10h1v1h-1z M11,10h1v1h-1z M12,10h1v1h-1z M14,10h1v1h-1z M17,10h1v1h-1z M18,10h1v1h-1z M19,10h1v1h-1z M1,11h1v1h-1z M4,11h1v1h-1z M7,11h1v1h-1z M11,11h1v1h-1z M13,11h1v1h-1z M16,11h1v1h-1z M17,11h1v1h-1z M18,11h1v1h-1z M0,12h1v1h-1z M1,12h1v1h-1z M3,12h1v1h-1z M6,12h1v1h-1z M7,12h1v1h-1z M10,12h1v1h-1z M11,12h1v1h-1z M12,12h1v1h-1z M14,12h1v1h-1z M16,12h1v1h-1z M20,12h1v1h-1z M8,13h1v1h-1z M12,13h1v1h-1z M13,13h1v1h-1z M14,13h1v1h-1z M15,13h1v1h-1z M16,13h1v1h-1z M17,13h1v1h-1z M0,14h1v1h-1z M1,14h1v1h-1z M2,14h1v1h-1z M3,14h1v1h-1z M4,14h1v1h-1z M5,14h1v1h-1z M6,14h1v1h-1z M8,14h1v1h-1z M9,14h1v1h-1z M11,14h1v1h-1z M12,14h1v1h-1z M18,14h1v1h-1z M19,14h1v1h-1z M0,15h1v1h-1z M6,15h1v1h-1z M8,15h1v1h-1z M12,15h1v1h-1z M13,15h1v1h-1z M16,15h1v1h-1z M17,15h1v1h-1z M18,15h1v1h-1z M20,15h1v1h-1z M0,16h1v1h-1z M2,16h1v1h-1z M3,16h1v1h-1z M4,16h1v1h-1z M6,16h1v1h-1z M8,16h1v1h-1z M9,16h1v1h-1z M10,16h1v1h-1z M11,16h1v1h-1z M12,16h1v1h-1z M14,16h1v1h-1z M20,16h1v1h-1z M0,17h1v1h-1z M2,17h1v1h-1z M3,17h1v1h-1z M4,17h1v1h-1z M6,17h1v1h-1z M8,17h1v1h-1z M10,17h1v1h-1z M12,17h1v1h-1z M13,17h1v1h-1z M17,17h1v1h-1z M0,18h1v1h-1z M2,18h1v1h-1z M3,18h1v1h-1z M4,18h1v1h-1z M6,18h1v1h-1z M8,18h1v1h-1z M11,18h1v1h-1z M18,18h1v1h-1z M0,19h1v1h-1z M6,19h1v1h-1z M8,19h1v1h-1z M10,19h1v1h-1z M16,19h1v1h-1z M17,19h1v1h-1z M18,19h1v1h-1z M0,20h1v1h-1z M1,20h1v1h-1z M2,20h1v1h-1z M3,20h1v1h-1z M4,20h1v1h-1z M5,20h1v1h-1z M6,20h1v1h-1z M11,20h1v1h-1z M16,20h1v1h-1z M19,20h1v1h-1z" fill="#000000"/>
</svg>